<svg width="44" height="82" viewBox="0 0 44 82" fill="none" xmlns="http://www.w3.org/2000/svg">
<path d="M3.51172 5.74414V77L38.7675 76.6279L40.3489 6.11623L3.51172 5.74414Z" fill="#A0DFDA"/>
<path d="M33.0932 79.7909C34.3955 72.349 35.5118 55.3258 33.5583 42.6746C32.163 33.0932 33.4653 27.1397 34.3955 17.8374C35.9769 21.8374 37.2792 25.8374 38.3955 30.0234" stroke="#030000" stroke-miterlimit="10" stroke-linecap="round" stroke-linejoin="round"/>
<path d="M22.9538 52.7207C21.8375 61.4649 21.3724 70.1161 20.3491 78.8602" stroke="#030000" stroke-miterlimit="10" stroke-linecap="round" stroke-linejoin="round"/>
<path d="M24.0698 53.0929C25.0001 52.9999 26.5815 51.9766 27.1396 51.2324" stroke="#030000" stroke-miterlimit="10" stroke-linecap="round" stroke-linejoin="round"/>
<path d="M33.5582 42.6743C26.9535 44.6278 19.4186 44.0697 12.6279 43.2325" stroke="#030000" stroke-miterlimit="10" stroke-linecap="round" stroke-linejoin="round"/>
<path d="M24.0698 53.0933C24.1628 55.884 25.5582 75.7909 25.6512 78.7677" stroke="#030000" stroke-miterlimit="10" stroke-linecap="round" stroke-linejoin="round"/>
<path d="M20.6279 1C20.6279 3.51163 19.1395 5.46512 17 6.48837C14.8605 7.51163 12.5349 7.7907 10.3023 8.62791C8.62791 9.18605 7.4186 10.3953 6.39535 11.7907C3.32558 16.1628 2.11628 21.4651 1 26.5814" stroke="#030000" stroke-miterlimit="10" stroke-linecap="round" stroke-linejoin="round"/>
<path d="M19.6978 20.814C16.535 21.4652 13.1861 20.907 10.4885 19.1396C9.93031 18.7675 9.27915 18.2094 9.18612 17.5582C9.0931 16.814 9.83729 15.9768 10.5815 16.814C11.3257 17.6512 13.4652 29.8373 13.0001 36.5349C12.814 39.3256 12.4419 42.2094 12.1629 45.0001C10.8605 57 11.3257 69.0931 13.3722 81.0001" stroke="#030000" stroke-miterlimit="10" stroke-linecap="round" stroke-linejoin="round"/>
<path d="M33.186 19.6045C31.8837 21.3719 28.8139 21.465 25.9302 21.0929" stroke="#030000" stroke-miterlimit="10" stroke-linecap="round" stroke-linejoin="round"/>
<path d="M8.62772 20.4419C7.23237 24.1628 5.74399 27.7907 4.1626 31.3256" stroke="#030000" stroke-miterlimit="10" stroke-linecap="round" stroke-linejoin="round"/>
<path d="M25.2788 1.37207C25.93 2.86044 26.6742 4.34881 27.9765 5.37207C29.93 6.95347 32.6276 6.95347 34.6742 8.25579C36.7207 9.55812 37.7439 11.9767 38.6742 14.2093C40.0695 17.6511 41.3718 21.186 42.5811 24.7209" stroke="#030000" stroke-miterlimit="10" stroke-linecap="round" stroke-linejoin="round"/>
<path d="M2.20947 21.7441C3.5118 22.8604 5.09319 23.7907 6.67459 24.4418" stroke="#030000" stroke-miterlimit="10" stroke-linecap="round" stroke-linejoin="round"/>
<path d="M41.6511 22.3022C40.4418 23.1395 39.1395 23.7906 37.7441 24.3488" stroke="#030000" stroke-miterlimit="10" stroke-linecap="round" stroke-linejoin="round"/>
<path d="M18.1162 7.04643C18.5813 7.60457 19.3255 8.06969 19.9767 8.44178C21.372 9.09294 22.9534 9.37201 24.4418 8.99992C25.9302 8.62783 27.3255 7.69759 27.9767 6.30225" stroke="#030000" stroke-miterlimit="10" stroke-linecap="round" stroke-linejoin="round"/>
<path d="M12.5347 71.1396C15.0463 71.6048 17.6509 71.7908 20.1626 71.7908" stroke="#030000" stroke-miterlimit="10" stroke-linecap="round" stroke-linejoin="round"/>
<path d="M25.2788 71.7906C27.6974 71.6975 30.116 71.5115 32.5346 71.0464" stroke="#030000" stroke-miterlimit="10" stroke-linecap="round" stroke-linejoin="round"/>
</svg>