<svg width="79" height="81" viewBox="0 0 79 81" fill="none" xmlns="http://www.w3.org/2000/svg">
<path d="M21.1516 4.25455C1.33122 15.0487 0.679842 24.7263 0.0284682 40.0801C-0.622905 55.4339 9.79907 77.9528 42.0886 75.9987C74.3781 74.0446 78.1933 47.1522 78.2864 31.7983C78.4725 13.2807 46.3691 -9.61041 21.1516 4.25455Z" fill="#FDDB70"/>
<path d="M32.7831 3.23047C31.7595 4.99848 26.6416 7.69703 23.5708 9.09283C19.5695 10.8608 16.3126 13.1872 14.2655 17.0954C12.2183 21.0037 10.3572 25.4702 9.61279 32.7284" stroke="#030000" stroke-miterlimit="10" stroke-linecap="round" stroke-linejoin="round"/>
<path d="M45.2524 2.5791C46.3691 4.62628 55.3022 8.81368 57.4424 9.74421C61.6298 11.6053 64.2353 14.3038 65.6311 17.4676C67.12 20.8176 67.8644 24.4466 67.5853 28.0757" stroke="#030000" stroke-miterlimit="10" stroke-linecap="round" stroke-linejoin="round"/>
<path d="M23.2915 24.7256C26.9206 27.4241 32.1316 27.8894 36.2259 25.8422" stroke="#030000" stroke-miterlimit="10" stroke-linecap="round" stroke-linejoin="round"/>
<path d="M21.7095 27.7031C19.6623 33.7516 19.6623 40.4514 21.6165 46.593C21.8956 47.5235 22.2678 48.454 22.3609 49.4776C22.3609 50.6873 21.8956 51.897 21.4303 53.0136C18.2665 61.6676 18.1735 71.3452 21.4303 79.9991" stroke="#030000" stroke-miterlimit="10" stroke-linecap="round" stroke-linejoin="round"/>
<path d="M42.647 24.5398C44.415 26.0286 46.8344 26.7731 49.1607 26.5869C51.487 26.4008 53.7203 25.2842 55.2092 23.4231C55.6744 22.9579 56.0467 22.3065 55.8606 21.6551C55.6744 21.0037 54.837 20.5385 54.4648 21.0037C54.1856 21.2829 54.1856 21.8412 54.2786 22.2134C54.7439 24.3537 56.1397 25.6564 56.9772 29.2855C58.9313 37.2881 57.5355 42.1269 56.605 50.2225C56.3258 52.6419 57.1633 54.9682 57.4425 57.2946C58.1869 63.9944 57.5355 70.8804 55.3953 77.301" stroke="#030000" stroke-miterlimit="10" stroke-linecap="round" stroke-linejoin="round"/>
<path d="M23.5708 47.8027C32.9692 52.6415 47.1133 52.4554 56.6048 47.8027" stroke="#030000" stroke-miterlimit="10" stroke-linecap="round" stroke-linejoin="round"/>
<path d="M43.7634 60.4583C43.7634 60.4583 41.6232 61.9471 38.2733 61.4819C37.5288 61.3888 36.7844 61.1096 36.3191 60.5513C35.8539 59.993 35.8539 59.0625 36.4122 58.5972C37.1566 57.9458 38.3663 58.5972 38.7385 59.5277C39.1107 60.4583 38.8316 61.4819 38.5524 62.4124C37.1566 67.2512 35.6678 71.9969 34.272 76.8357" stroke="#030000" stroke-miterlimit="10" stroke-linecap="round" stroke-linejoin="round"/>
<path d="M39.6689 64.1807C40.5064 69.2986 42.0883 74.2304 44.5077 78.8831" stroke="#030000" stroke-miterlimit="10" stroke-linecap="round" stroke-linejoin="round"/>
<path d="M30.9219 6.85924C33.3413 8.99947 36.412 10.4883 39.5758 10.3953C42.7397 10.3953 45.9965 8.72031 47.5784 5.92871" stroke="#030000" stroke-miterlimit="10" stroke-linecap="round" stroke-linejoin="round"/>
<path d="M57.7212 26.8664C61.2572 25.8428 64.8863 24.8192 68.4223 23.8887" stroke="#030000" stroke-miterlimit="10" stroke-linecap="round" stroke-linejoin="round"/>
<path d="M21.6169 27.5175C18.7323 26.1217 16.0337 24.4467 13.4282 22.6787" stroke="#030000" stroke-miterlimit="10" stroke-linecap="round" stroke-linejoin="round"/>
</svg>