<svg width="78" height="82" viewBox="0 0 78 82" fill="none" xmlns="http://www.w3.org/2000/svg">
<path d="M55.6545 55.1399C62.7243 42.2096 74.3522 20.1631 76.2126 15.8841C78.0731 11.605 77.887 6.11661 68.6777 5.46545C59.4684 4.81429 13.9801 5.55847 3.84053 6.11661C0.677741 6.30266 -0.531561 8.44219 0.212625 11.2329C1.14286 14.8608 3.84053 21.7445 6.16611 26.5817C11.8405 38.0236 17.1429 48.9073 21.5149 56.8143C27.3754 67.2329 34.1661 78.9538 38.0731 78.9538C41.608 78.9538 47.9336 69.0934 55.6545 55.1399Z" fill="#FBB49B"/>
<path d="M13.98 23.9769C17.5149 24.2559 21.0497 23.0466 23.6544 20.7211C24.3986 20.0699 25.0497 18.5815 24.1195 18.1164C23.2823 17.7443 22.5381 18.8606 22.3521 19.7908C21.5149 23.4187 21.7939 27.3257 23.0032 30.8606C24.3056 34.4885 26.8172 38.0234 26.6311 41.9304C26.5381 43.7908 25.98 45.5583 25.3288 47.2327C21.98 57.2792 19.8404 68.1629 22.8172 78.3025" stroke="#030000" stroke-miterlimit="10" stroke-linecap="round" stroke-linejoin="round"/>
<path d="M62.5381 24.9996C59.1893 24.4414 56.1195 22.674 53.98 20.0693" stroke="#030000" stroke-miterlimit="10" stroke-linecap="round" stroke-linejoin="round"/>
<path d="M54.1657 22.6748C55.282 27.9771 51.7471 33.0934 51.282 38.3957C51.0029 42.1167 52.1192 45.7446 52.9564 49.3725C54.8169 57.5585 55.0029 66.2097 53.5145 74.4888" stroke="#030000" stroke-miterlimit="10" stroke-linecap="round" stroke-linejoin="round"/>
<path d="M25.0498 24.1631C26.7242 25.3724 28.8638 25.8375 31.0033 25.8375C33.0498 25.8375 35.9335 24.8142 35.9335 24.8142" stroke="#030000" stroke-miterlimit="10" stroke-linecap="round" stroke-linejoin="round"/>
<path d="M40.7705 24.9998C43.0961 25.93 48.2124 25.744 50.5379 24.7207" stroke="#030000" stroke-miterlimit="10" stroke-linecap="round" stroke-linejoin="round"/>
<path d="M26.5381 44.7212C34.259 44.5352 41.9799 44.2561 49.7009 43.791" stroke="#030000" stroke-miterlimit="10" stroke-linecap="round" stroke-linejoin="round"/>
<path d="M39.0964 56.9072C38.1662 65.3723 35.4685 73.5584 31.1895 80.9072" stroke="#030000" stroke-miterlimit="10" stroke-linecap="round" stroke-linejoin="round"/>
<path d="M37.6079 56.6283C40.2126 57.2795 43.1893 56.3492 45.0498 54.3027" stroke="#030000" stroke-miterlimit="10" stroke-linecap="round" stroke-linejoin="round"/>
<path d="M39.9333 56.9072C39.5612 65.1863 42.4449 73.4654 45.7938 81.0002" stroke="#030000" stroke-miterlimit="10" stroke-linecap="round" stroke-linejoin="round"/>
<path d="M17.0498 12.5347C21.4219 7.97657 28.5847 6.20913 34.5382 8.25564" stroke="#030000" stroke-miterlimit="10" stroke-linecap="round" stroke-linejoin="round"/>
<path d="M43.8404 1C44.1195 3.13953 44.3986 5.27907 44.7706 7.4186C44.8637 8.06977 44.9567 8.81395 44.6776 9.37209C44.3986 9.93023 43.5613 10.3953 43.0032 10.0233C42.7241 9.83721 42.5381 9.37209 42.5381 9C42.5381 7.60465 44.2125 6.86046 45.6079 6.67442C51.3753 5.83721 57.4218 8.72093 60.5846 13.6512" stroke="#030000" stroke-miterlimit="10" stroke-linecap="round" stroke-linejoin="round"/>
<path d="M22.4448 72.8135C26.3518 73.0925 30.1658 73.5577 33.9797 74.2088" stroke="#030000" stroke-miterlimit="10" stroke-linecap="round" stroke-linejoin="round"/>
<path d="M43.0029 74.3949C45.7936 73.8367 48.6773 73.2786 51.468 72.8135" stroke="#030000" stroke-miterlimit="10" stroke-linecap="round" stroke-linejoin="round"/>
<path d="M29.3286 7.88379C30.3519 10.6745 31.9333 13.3722 34.2588 15.2326C36.5844 17.0931 39.7472 18.1163 42.6309 17.3722C44.6774 16.814 46.4449 15.5117 47.7472 13.8373C49.0495 12.1629 49.9798 10.2094 50.5379 8.16286" stroke="#030000" stroke-miterlimit="10" stroke-linecap="round" stroke-linejoin="round"/>
<path d="M51.8405 8.34863C51.7475 9.93003 51.5614 11.5114 51.4684 13.1858C51.2823 15.6975 51.5614 20.8137 53.794 22.5812" stroke="#030000" stroke-miterlimit="10" stroke-linecap="round" stroke-linejoin="round"/>
<path d="M26.0728 15.2324C27.189 12.9068 27.6541 10.2091 27.4681 7.60449" stroke="#030000" stroke-miterlimit="10" stroke-linecap="round" stroke-linejoin="round"/>
</svg>